<?xml version="1.0" encoding="UTF-8" standalone="no"?>
<!-- Generator: Adobe Illustrator 17.0.0, SVG Export Plug-In . SVG Version: 6.00 Build 0)  -->

<svg
   xmlns:dc="http://purl.org/dc/elements/1.1/"
   xmlns:cc="http://creativecommons.org/ns#"
   xmlns:rdf="http://www.w3.org/1999/02/22-rdf-syntax-ns#"
   xmlns:svg="http://www.w3.org/2000/svg"
   xmlns="http://www.w3.org/2000/svg"
   xmlns:sodipodi="http://sodipodi.sourceforge.net/DTD/sodipodi-0.dtd"
   xmlns:inkscape="http://www.inkscape.org/namespaces/inkscape"
   version="1.1"
   id="Layer_1"
   x="0px"
   y="0px"
   width="132.97173"
   height="216.10963"
   viewBox="0 0 132.97173 216.10963"
   enable-background="new 0 0 612 792"
   xml:space="preserve"
   inkscape:version="0.48.3.1 r9886"
   sodipodi:docname="02-skull.svg"><metadata
   id="metadata3072"><rdf:RDF><cc:Work
       rdf:about=""><dc:format>image/svg+xml</dc:format><dc:type
         rdf:resource="http://purl.org/dc/dcmitype/StillImage" /></cc:Work></rdf:RDF></metadata><defs
   id="defs3070" /><sodipodi:namedview
   pagecolor="#ffffff"
   bordercolor="#666666"
   borderopacity="1"
   objecttolerance="10"
   gridtolerance="10"
   guidetolerance="10"
   inkscape:pageopacity="0"
   inkscape:pageshadow="2"
   inkscape:window-width="640"
   inkscape:window-height="480"
   id="namedview3068"
   showgrid="false"
   fit-margin-top="0"
   fit-margin-left="0"
   fit-margin-right="0"
   fit-margin-bottom="0"
   inkscape:zoom="0.2979798"
   inkscape:cx="70.333"
   inkscape:cy="107.44264"
   inkscape:window-x="0"
   inkscape:window-y="24"
   inkscape:window-maximized="0"
   inkscape:current-layer="Layer_1" />
<path
   d="M 108,95 C 108,95 45.667,45.333 89,0 89,0 45.667,13 50.333,60.333 55,107.666 74,100 55,128.666 55,128.666 67.257,70.588 0.295,56.46 L 0,56.332 c 0,0 0.295,0.128 0.825,0.384 5.812,2.808 39.867,21.039 21.842,54.95 0,0 -51.333,55 8.333,85 0,0 13.333,8 17,16.333 0,0 13.862,5.803 38.098,1.557 0.409,-0.072 0.82,-0.146 1.235,-0.223 0,0 0.333,-9 9,-13 0,0.001 74,-23.666 11.667,-106.333 z m -70.167,93.667 c -9.941,0 -18,-8.059 -18,-18 0,-9.941 8.059,-18 18,-18 9.941,0 18,8.059 18,18 0,9.941 -8.059,18 -18,18 z m 23.958,10.482 c -1.195,-4.779 5.759,-13.569 7.217,-15.344 -0.09,-0.109 -0.167,-0.213 -0.259,-0.323 h 0.528 c 0,0 -0.099,0.117 -0.268,0.323 7.354,8.914 7.449,15.344 7.449,15.344 -6,8.333 -14.667,0 -14.667,0 z m 36.042,-10.482 c -9.941,0 -18,-8.059 -18,-18 0,-9.941 8.059,-18 18,-18 9.941,0 18,8.059 18,18 0,9.941 -8.059,18 -18,18 z"
   id="path3066"
   inkscape:connector-curvature="0"
   style="fill:#046efe" />
</svg>