<?xml version="1.0" encoding="UTF-8" standalone="no"?>
<!-- Generator: Adobe Illustrator 17.0.0, SVG Export Plug-In . SVG Version: 6.00 Build 0)  -->

<svg
   xmlns:dc="http://purl.org/dc/elements/1.1/"
   xmlns:cc="http://creativecommons.org/ns#"
   xmlns:rdf="http://www.w3.org/1999/02/22-rdf-syntax-ns#"
   xmlns:svg="http://www.w3.org/2000/svg"
   xmlns="http://www.w3.org/2000/svg"
   xmlns:sodipodi="http://sodipodi.sourceforge.net/DTD/sodipodi-0.dtd"
   xmlns:inkscape="http://www.inkscape.org/namespaces/inkscape"
   version="1.1"
   id="Layer_1"
   x="0px"
   y="0px"
   width="193.808"
   height="156.828"
   viewBox="0 0 193.808 156.828"
   enable-background="new 0 0 612 792"
   xml:space="preserve"
   inkscape:version="0.48.3.1 r9886"
   sodipodi:docname="03-grave.svg"><metadata
   id="metadata3063"><rdf:RDF><cc:Work
       rdf:about=""><dc:format>image/svg+xml</dc:format><dc:type
         rdf:resource="http://purl.org/dc/dcmitype/StillImage" /></cc:Work></rdf:RDF></metadata><defs
   id="defs3061" /><sodipodi:namedview
   pagecolor="#ffffff"
   bordercolor="#666666"
   borderopacity="1"
   objecttolerance="10"
   gridtolerance="10"
   guidetolerance="10"
   inkscape:pageopacity="0"
   inkscape:pageshadow="2"
   inkscape:window-width="640"
   inkscape:window-height="480"
   id="namedview3059"
   showgrid="false"
   fit-margin-top="0"
   fit-margin-left="0"
   fit-margin-right="0"
   fit-margin-bottom="0"
   inkscape:zoom="0.2979798"
   inkscape:cx="96.301"
   inkscape:cy="79.333"
   inkscape:window-x="0"
   inkscape:window-y="24"
   inkscape:window-maximized="0"
   inkscape:current-layer="Layer_1" />
<polygon
   points="349.822,355.735 345.793,374.973 327.729,371.19 323.896,389.495 341.959,393.278 332.961,436.244 352.325,440.3 361.323,397.333 379.387,401.116 383.221,382.811 365.157,379.028 369.186,359.791 "
   id="polygon3053"
   style="fill:#26aec8"
   transform="translate(-209.699,-318.505)" />
<polygon
   points="234.906,325.544 241.899,358.746 210.723,365.313 217.377,396.906 248.554,390.339 264.174,464.495 297.594,457.456 281.974,383.3 313.151,376.733 306.496,345.14 275.32,351.707 268.326,318.505 "
   id="polygon3055"
   style="fill:#26aec8"
   transform="translate(-209.699,-318.505)" />
<path
   d="m 193.808,156.828 c -3.707,-23.121 -34.659,-41.167 -72.294,-41.167 -27.904,0 -52.121,9.926 -64.297,24.48 -5.74,-2.314 -12.411,-3.646 -19.537,-3.646 -18.202,0 -33.474,8.655 -37.68,20.333 h 193.808 z"
   id="path3057"
   inkscape:connector-curvature="0"
   style="fill:#3a4e56" />
</svg>