<?xml version="1.0" encoding="UTF-8" standalone="no"?>
<!-- Generator: Adobe Illustrator 17.0.0, SVG Export Plug-In . SVG Version: 6.00 Build 0)  -->

<svg
   xmlns:dc="http://purl.org/dc/elements/1.1/"
   xmlns:cc="http://creativecommons.org/ns#"
   xmlns:rdf="http://www.w3.org/1999/02/22-rdf-syntax-ns#"
   xmlns:svg="http://www.w3.org/2000/svg"
   xmlns="http://www.w3.org/2000/svg"
   xmlns:sodipodi="http://sodipodi.sourceforge.net/DTD/sodipodi-0.dtd"
   xmlns:inkscape="http://www.inkscape.org/namespaces/inkscape"
   version="1.1"
   id="Layer_1"
   x="0px"
   y="0px"
   width="168.66701"
   height="310"
   viewBox="0 0 168.66701 310"
   enable-background="new 0 0 612 792"
   xml:space="preserve"
   inkscape:version="0.48.3.1 r9886"
   sodipodi:docname="05-spider.svg"><metadata
   id="metadata3027"><rdf:RDF><cc:Work
       rdf:about=""><dc:format>image/svg+xml</dc:format><dc:type
         rdf:resource="http://purl.org/dc/dcmitype/StillImage" /></cc:Work></rdf:RDF></metadata><defs
   id="defs3025" /><sodipodi:namedview
   pagecolor="#ffffff"
   bordercolor="#666666"
   borderopacity="1"
   objecttolerance="10"
   gridtolerance="10"
   guidetolerance="10"
   inkscape:pageopacity="0"
   inkscape:pageshadow="2"
   inkscape:window-width="640"
   inkscape:window-height="480"
   id="namedview3023"
   showgrid="false"
   fit-margin-top="0"
   fit-margin-left="0"
   fit-margin-right="0"
   fit-margin-bottom="0"
   inkscape:zoom="0.2979798"
   inkscape:cx="84"
   inkscape:cy="154.75"
   inkscape:window-x="0"
   inkscape:window-y="24"
   inkscape:window-maximized="0"
   inkscape:current-layer="Layer_1" />
<path
   d="m 58.75,221.75 -18.25,-17 c 0,0 4,-55.5 22.5,-75.5 0,0 1.5,-6.75 -5.675,-0.25 0,0 -24.075,42 -22.825,79.25 0,0 24.908,22.424 31.204,35.962"
   id="path3007"
   inkscape:connector-curvature="0"
   style="fill:#e21b1b" />
<path
   d="m 109.407,222.75 18.25,-17 c 0,0 -4,-55.5 -22.5,-75.5 0,0 -1.5,-6.75 5.675,-0.25 0,0 24.075,42 22.825,79.25 0,0 -24.908,22.424 -31.204,35.962"
   id="path3009"
   inkscape:connector-curvature="0"
   style="fill:#e21b1b" />
<path
   d="m 65,241 c 0,0 -19.5,3.162 -28.5,6.706 -9,3.544 -29.25,35.044 -29.75,62.294 0,0 23.5,-49.5 34.5,-56.25 0,0 19.088,-5.088 26.669,-6.044 L 60.5,251.5 c 0,0 -7.75,37.75 18.5,48.25 0,0 -19.592,-9.5 -13.296,-43 l 7.013,-3.457"
   id="path3011"
   inkscape:connector-curvature="0"
   style="fill:#e21b1b" />
<path
   d="m 103.5,241 c 0,0 19.5,3.162 28.5,6.706 9,3.544 29.25,35.044 29.75,62.294 0,0 -23.5,-49.5 -34.5,-56.25 0,0 -19.088,-5.088 -26.669,-6.044 L 108,251.5 c 0,0 7.75,37.75 -18.5,48.25 0,0 19.592,-9.5 13.296,-43 l -7.013,-3.457"
   id="path3013"
   inkscape:connector-curvature="0"
   style="fill:#e21b1b" />
<path
   d="m 66,237.75 c 0,0 -23,-15.25 -23.75,-15.25 -0.75,0 -8.5,-7.5 -42.25,-3 l 31.5,4.75 c 0,0 26,12.424 31.75,19.962"
   id="path3015"
   inkscape:connector-curvature="0"
   style="fill:#e21b1b" />
<path
   d="m 102.667,237.75 c 0,0 23,-15.25 23.75,-15.25 0.75,0 8.5,-7.5 42.25,-3 l -31.5,4.75 c 0,0 -26,12.424 -31.75,19.962"
   id="path3017"
   inkscape:connector-curvature="0"
   style="fill:#e21b1b" />
<line
   stroke-miterlimit="10"
   x1="84.25"
   y1="183.5"
   x2="84.25"
   y2="1"
   id="line3019"
   style="fill:none;stroke:#f4f4f4;stroke-width:2;stroke-miterlimit:10" />
<path
   d="m 84.25,181.75 c -0.75,-0.25 -29.75,6.25 -25.5,40 4.25,33.75 25.5,38.5 25.5,38.5 0,0 21.25,-4.75 25.5,-38.5 C 114,188 85,181.5 84.25,181.75 z"
   id="path3021"
   inkscape:connector-curvature="0"
   style="fill:#e21b1b" />
</svg>