<?xml version="1.0" encoding="UTF-8" standalone="no"?>
<!-- Generator: Adobe Illustrator 17.0.0, SVG Export Plug-In . SVG Version: 6.00 Build 0)  -->

<svg
   xmlns:dc="http://purl.org/dc/elements/1.1/"
   xmlns:cc="http://creativecommons.org/ns#"
   xmlns:rdf="http://www.w3.org/1999/02/22-rdf-syntax-ns#"
   xmlns:svg="http://www.w3.org/2000/svg"
   xmlns="http://www.w3.org/2000/svg"
   xmlns:sodipodi="http://sodipodi.sourceforge.net/DTD/sodipodi-0.dtd"
   xmlns:inkscape="http://www.inkscape.org/namespaces/inkscape"
   version="1.1"
   id="Layer_1"
   x="0px"
   y="0px"
   width="151.87836"
   height="249.58"
   viewBox="0 0 151.87836 249.58"
   enable-background="new 0 0 612 792"
   xml:space="preserve"
   inkscape:version="0.48.3.1 r9886"
   sodipodi:docname="06-flame.svg"><metadata
   id="metadata3004"><rdf:RDF><cc:Work
       rdf:about=""><dc:format>image/svg+xml</dc:format><dc:type
         rdf:resource="http://purl.org/dc/dcmitype/StillImage" /></cc:Work></rdf:RDF></metadata><defs
   id="defs3002" /><sodipodi:namedview
   pagecolor="#ffffff"
   bordercolor="#666666"
   borderopacity="1"
   objecttolerance="10"
   gridtolerance="10"
   guidetolerance="10"
   inkscape:pageopacity="0"
   inkscape:pageshadow="2"
   inkscape:window-width="640"
   inkscape:window-height="480"
   id="namedview3000"
   showgrid="false"
   inkscape:zoom="0.2979798"
   inkscape:cx="64.192121"
   inkscape:cy="125"
   inkscape:window-x="0"
   inkscape:window-y="24"
   inkscape:window-maximized="0"
   inkscape:current-layer="Layer_1"
   fit-margin-top="0"
   fit-margin-left="0"
   fit-margin-right="0"
   fit-margin-bottom="0" />
<linearGradient
   id="SVGID_1_"
   gradientUnits="userSpaceOnUse"
   x1="317.7471"
   y1="521"
   x2="317.7471"
   y2="271.42001"
   gradientTransform="translate(-241.80788,-271.42)">
	<stop
   offset="0"
   style="stop-color:#00B8F6"
   id="stop2988" />
	<stop
   offset="0.585"
   style="stop-color:#005FFA"
   id="stop2990" />
	<stop
   offset="0.9273"
   style="stop-color:#BD3CD4"
   id="stop2992" />
	<stop
   offset="0.9994"
   style="stop-color:#C93AD2"
   id="stop2994" />
</linearGradient>
<path
   d="m 59.192121,249.58 c 0,0 -121,-46 -17,-181 0,0 -19.5,45.5 2.5,63 0,0 -22.703,-60.705 55.947999,-131.121 0.513,-0.459 0.513,-0.459 0.513,-0.459 0,0 -9.960999,63.58 30.039,117.08 0,0 61,84.5 -26.5,128 0,0 36.47,-67.771 -30.752999,-93.5 0,0 -62.414,30.679 -14.747,98 z"
   id="path2996"
   inkscape:connector-curvature="0"
   style="fill:url(#SVGID_1_)" />
<path
   d="m 41.192121,232.08 c 0,0 -68.667,-48.167 -10,-137 0,0 -13,43 19,40 0,0 -3,-69 33,-88.5 0,0 -5.483,51.997 37.999999,86.5 46,36.5 3.5,90.892 -6,99 0,0 33.494,-58.5 -41.252999,-93 0,0 -56.747,7.5 -32.747,93 z"
   id="path2998"
   inkscape:connector-curvature="0"
   style="fill:#0a4ad0" />
</svg>