<?xml version="1.0" encoding="UTF-8" standalone="no"?>
<!-- Generator: Adobe Illustrator 17.0.0, SVG Export Plug-In . SVG Version: 6.00 Build 0)  -->

<svg
   xmlns:dc="http://purl.org/dc/elements/1.1/"
   xmlns:cc="http://creativecommons.org/ns#"
   xmlns:rdf="http://www.w3.org/1999/02/22-rdf-syntax-ns#"
   xmlns:svg="http://www.w3.org/2000/svg"
   xmlns="http://www.w3.org/2000/svg"
   xmlns:sodipodi="http://sodipodi.sourceforge.net/DTD/sodipodi-0.dtd"
   xmlns:inkscape="http://www.inkscape.org/namespaces/inkscape"
   version="1.1"
   id="Layer_1"
   x="0px"
   y="0px"
   width="239.19273"
   height="253.42567"
   viewBox="0 0 239.19273 253.42567"
   enable-background="new 0 0 612 792"
   xml:space="preserve"
   inkscape:version="0.48.3.1 r9886"
   sodipodi:docname="07-ghost.svg"><metadata
   id="metadata9"><rdf:RDF><cc:Work
       rdf:about=""><dc:format>image/svg+xml</dc:format><dc:type
         rdf:resource="http://purl.org/dc/dcmitype/StillImage" /></cc:Work></rdf:RDF></metadata><defs
   id="defs7" /><sodipodi:namedview
   pagecolor="#ffffff"
   bordercolor="#666666"
   borderopacity="1"
   objecttolerance="10"
   gridtolerance="10"
   guidetolerance="10"
   inkscape:pageopacity="0"
   inkscape:pageshadow="2"
   inkscape:window-width="640"
   inkscape:window-height="480"
   id="namedview5"
   showgrid="false"
   fit-margin-top="0"
   fit-margin-left="0"
   fit-margin-right="0"
   fit-margin-bottom="0"
   inkscape:zoom="0.2979798"
   inkscape:cx="115.08193"
   inkscape:cy="123.71303"
   inkscape:window-x="0"
   inkscape:window-y="24"
   inkscape:window-maximized="0"
   inkscape:current-layer="Layer_1" />
<path
   d="m 227.41493,181.78964 c 0,0 -29.083,-26.967 -39.141,-64.86 14.626,-6.62 23.038,-18.457997 35.808,-35.639997 18.333,-24.667 1,-31 -18.333,-19.333 -6.943,4.19 -13.752,7.43 -19.635,9.867 -0.063,-19.88 -7.346,-61.9449999 -66.325,-71.03299986 0,0 -59.373004,-12.00000014 -82.373004,57.49999986 0,0 -8.75,-33.25 -22.529,-28.252 0,0 -23.4709998,11.752 -11.4709998,46.752 L 15.415926,100.23364 c 0,0 -30.542,72.703 1.873,135.06 0.521,1.002 1.058,2 1.611,2.996 0,0 10.516,21 34.016,0 0,0 13.5,-9.239 28,-3.119 0,0 32.250004,33.494 49.125004,9.744 0,0 8.875,-19.125 33.375,-12.625 0,0 46,24 64,3 -0.001,0 26.499,-23.5 -0.001,-53.5 z M 70.562926,75.639643 c -5.352,-1.364 -7.369,-11.58 -4.505,-22.819 2.864,-11.239 9.524,-19.244 14.876,-17.88 5.352,1.364 7.369,11.58 4.505,22.819 -2.864,11.239 -9.524,19.244 -14.876,17.88 z m 32.756004,41.539997 c -3.818004,14.981 -12.696004,25.652 -19.830004,23.834 -7.134,-1.818 -9.822,-15.436 -6.005,-30.417 3.817,-14.980997 12.696,-25.651997 19.83,-23.833997 7.134004,1.818 9.823004,15.435997 6.005004,30.416997 z m 38.828,-51.086997 c -2.864,11.239 -9.524,19.244 -14.876,17.88 -5.352,-1.364 -7.369,-11.58 -4.505,-22.819 2.864,-11.239 9.524,-19.244 14.876,-17.88 5.353,1.364 7.369,11.58 4.505,22.819 z"
   id="path3"
   inkscape:connector-curvature="0"
   style="fill:#e9f1f4" />
</svg>