<?xml version="1.0" encoding="UTF-8" standalone="no"?>
<!-- Generator: Adobe Illustrator 17.0.0, SVG Export Plug-In . SVG Version: 6.00 Build 0)  -->

<svg
   xmlns:dc="http://purl.org/dc/elements/1.1/"
   xmlns:cc="http://creativecommons.org/ns#"
   xmlns:rdf="http://www.w3.org/1999/02/22-rdf-syntax-ns#"
   xmlns:svg="http://www.w3.org/2000/svg"
   xmlns="http://www.w3.org/2000/svg"
   xmlns:sodipodi="http://sodipodi.sourceforge.net/DTD/sodipodi-0.dtd"
   xmlns:inkscape="http://www.inkscape.org/namespaces/inkscape"
   version="1.1"
   id="Layer_1"
   x="0px"
   y="0px"
   width="200.13016"
   height="132.06667"
   viewBox="0 0 200.13016 132.06667"
   enable-background="new 0 0 612 792"
   xml:space="preserve"
   inkscape:version="0.48.3.1 r9886"
   sodipodi:docname="01-butterfly.svg"><metadata
   id="metadata21"><rdf:RDF><cc:Work
       rdf:about=""><dc:format>image/svg+xml</dc:format><dc:type
         rdf:resource="http://purl.org/dc/dcmitype/StillImage" /></cc:Work></rdf:RDF></metadata><defs
   id="defs19" /><sodipodi:namedview
   pagecolor="#ffffff"
   bordercolor="#666666"
   borderopacity="1"
   objecttolerance="10"
   gridtolerance="10"
   guidetolerance="10"
   inkscape:pageopacity="0"
   inkscape:pageshadow="2"
   inkscape:window-width="1366"
   inkscape:window-height="692"
   id="namedview17"
   showgrid="false"
   fit-margin-top="0"
   fit-margin-left="0"
   fit-margin-right="0"
   fit-margin-bottom="0"
   inkscape:zoom="0.5959596"
   inkscape:cx="306"
   inkscape:cy="396"
   inkscape:window-x="0"
   inkscape:window-y="24"
   inkscape:window-maximized="1"
   inkscape:current-layer="Layer_1" />
<path
   d="m 94.11458,63.854 c 0,0 -10.777,-62.188 -69.777,-63.854 0,0 -63.333,6.333 14.333,79 0,0 -24.223,42.554 1.29,51.432 0.233,0.081 0.469,0.159 0.71,0.234 26.667,8.333 62.333,-22 58,-51.667"
   id="path3"
   inkscape:connector-curvature="0"
   style="fill:#adaecc" />
<path
   d="m 106.01558,63.854 c 0,0 10.777,-62.188 69.777,-63.854 0,0 63.333,6.333 -14.333,79 0,0 24.223,42.554 -1.29,51.432 -0.233,0.081 -0.469,0.159 -0.71,0.234 -26.667,8.333 -62.333,-22 -58,-51.667"
   id="path5"
   inkscape:connector-curvature="0"
   style="fill:#adaecc" />
<path
   d="m 104.86458,62.854 c -1.274,-1.274 -2.466,-1.992 -3.56,-2.336 2.071,-0.747 3.56,-2.71 3.56,-5.039 0,-2.969 -2.406,-5.375 -5.375,-5.375 -2.969,0 -5.375,2.406 -5.375,5.375 0,2.415 1.603,4.434 3.796,5.112 -2.385,0.889 -3.796,3.263 -3.796,3.263 -2.761,4.68 4.75,38.75 6.375,38.25 1.625,-0.5 10.75,-32.875 4.375,-39.25 z"
   id="path7"
   inkscape:connector-curvature="0"
   style="fill:#392c49" />
<path
   stroke-miterlimit="10"
   d="m 97.50358,52 c 0,0 2.833,-23.833 -16.167,-34.667"
   id="path9"
   inkscape:connector-curvature="0"
   style="fill:none;stroke:#0d0d0e;stroke-miterlimit:10" />
<ellipse
   transform="matrix(0.6872,-0.7264,0.7264,0.6872,-360.30752,2.3986)"
   cx="292.04001"
   cy="332.48401"
   rx="1.5829999"
   ry="2.4170001"
   id="ellipse11"
   sodipodi:cx="292.04001"
   sodipodi:cy="332.48401"
   sodipodi:rx="1.5829999"
   sodipodi:ry="2.4170001"
   style="fill:#0d0d0e" />
<path
   stroke-miterlimit="10"
   d="m 102.00458,53 c 0,0 -2.833,-23.833 16.167,-34.667"
   id="path13"
   inkscape:connector-curvature="0"
   style="fill:none;stroke:#0d0d0e;stroke-miterlimit:10" />
<ellipse
   transform="matrix(-0.6872,-0.7264,0.7264,-0.6872,100.55008,486.99017)"
   cx="327.707"
   cy="333.48401"
   rx="1.5829999"
   ry="2.4170001"
   id="ellipse15"
   sodipodi:cx="327.707"
   sodipodi:cy="333.48401"
   sodipodi:rx="1.5829999"
   sodipodi:ry="2.4170001"
   style="fill:#0d0d0e" />
</svg>