<?xml version="1.0" encoding="UTF-8" standalone="no"?>
<!-- Generator: Adobe Illustrator 17.0.0, SVG Export Plug-In . SVG Version: 6.00 Build 0)  -->

<svg
   xmlns:dc="http://purl.org/dc/elements/1.1/"
   xmlns:cc="http://creativecommons.org/ns#"
   xmlns:rdf="http://www.w3.org/1999/02/22-rdf-syntax-ns#"
   xmlns:svg="http://www.w3.org/2000/svg"
   xmlns="http://www.w3.org/2000/svg"
   xmlns:sodipodi="http://sodipodi.sourceforge.net/DTD/sodipodi-0.dtd"
   xmlns:inkscape="http://www.inkscape.org/namespaces/inkscape"
   version="1.1"
   id="Layer_1"
   x="0px"
   y="0px"
   width="294.66699"
   height="182.00101"
   viewBox="0 0 294.66699 182.00101"
   enable-background="new 0 0 612 792"
   xml:space="preserve"
   inkscape:version="0.48.3.1 r9886"
   sodipodi:docname="03-cloud1.svg"><metadata
   id="metadata3051"><rdf:RDF><cc:Work
       rdf:about=""><dc:format>image/svg+xml</dc:format><dc:type
         rdf:resource="http://purl.org/dc/dcmitype/StillImage" /></cc:Work></rdf:RDF></metadata><defs
   id="defs3049" /><sodipodi:namedview
   pagecolor="#ffffff"
   bordercolor="#666666"
   borderopacity="1"
   objecttolerance="10"
   gridtolerance="10"
   guidetolerance="10"
   inkscape:pageopacity="0"
   inkscape:pageshadow="2"
   inkscape:window-width="640"
   inkscape:window-height="480"
   id="namedview3047"
   showgrid="false"
   fit-margin-top="0"
   fit-margin-left="0"
   fit-margin-right="0"
   fit-margin-bottom="0"
   inkscape:zoom="0.2979798"
   inkscape:cx="130.834"
   inkscape:cy="69.328"
   inkscape:window-x="0"
   inkscape:window-y="24"
   inkscape:window-maximized="0"
   inkscape:current-layer="Layer_1" />
<path
   d="m 294.667,145.001 c 0,-14.216 -10.479,-26.552 -25.841,-32.748 0.327,-2.044 0.508,-4.129 0.508,-6.252 0,-23.259 -20.3,-42.357 -46.228,-44.466 1.445,-4.389 2.228,-9.043 2.228,-13.868 C 225.334,21.341 202.202,0 173.667,0 150.577,0 131.03,13.976 124.409,33.257 117.581,29.49 109.714,27.333 101.333,27.333 75.192,27.333 54,48.226 54,74 c 0,4.899 0.77,9.62 2.19,14.057 C 24.911,89.226 0,109.794 0,135 c 0,23.978 22.545,43.747 51.667,46.626 v 0.195 h 2.342 c 1.647,0.11 3.309,0.18 4.992,0.18 1.683,0 3.345,-0.07 4.992,-0.18 h 177.596 c 1.562,0.117 3.144,0.18 4.746,0.18 1.602,0 3.184,-0.063 4.746,-0.18 h 1.588 v -0.147 c 23.696,-2.376 41.998,-17.883 41.998,-36.673 z"
   id="path3045"
   inkscape:connector-curvature="0"
   style="fill:#bce4e7" />
</svg>