<?xml version="1.0" encoding="UTF-8" standalone="no"?>
<!-- Generator: Adobe Illustrator 17.0.0, SVG Export Plug-In . SVG Version: 6.00 Build 0)  -->

<svg
   xmlns:dc="http://purl.org/dc/elements/1.1/"
   xmlns:cc="http://creativecommons.org/ns#"
   xmlns:rdf="http://www.w3.org/1999/02/22-rdf-syntax-ns#"
   xmlns:svg="http://www.w3.org/2000/svg"
   xmlns="http://www.w3.org/2000/svg"
   xmlns:sodipodi="http://sodipodi.sourceforge.net/DTD/sodipodi-0.dtd"
   xmlns:inkscape="http://www.inkscape.org/namespaces/inkscape"
   version="1.1"
   id="Layer_1"
   x="0px"
   y="0px"
   width="264.75"
   height="192"
   viewBox="0 0 264.75 192"
   enable-background="new 0 0 612 792"
   xml:space="preserve"
   inkscape:version="0.48.3.1 r9886"
   sodipodi:docname="04-cloud2.svg"><metadata
   id="metadata3042"><rdf:RDF><cc:Work
       rdf:about=""><dc:format>image/svg+xml</dc:format><dc:type
         rdf:resource="http://purl.org/dc/dcmitype/StillImage" /></cc:Work></rdf:RDF></metadata><defs
   id="defs3040" /><sodipodi:namedview
   pagecolor="#ffffff"
   bordercolor="#666666"
   borderopacity="1"
   objecttolerance="10"
   gridtolerance="10"
   guidetolerance="10"
   inkscape:pageopacity="0"
   inkscape:pageshadow="2"
   inkscape:window-width="640"
   inkscape:window-height="480"
   id="namedview3038"
   showgrid="false"
   fit-margin-top="0"
   fit-margin-left="0"
   fit-margin-right="0"
   fit-margin-bottom="0"
   inkscape:zoom="0.2979798"
   inkscape:cx="132.375"
   inkscape:cy="82.001"
   inkscape:window-x="0"
   inkscape:window-y="24"
   inkscape:window-maximized="0"
   inkscape:current-layer="Layer_1" />
<path
   d="M 237.424,87.263 C 238.281,84.402 238.75,81.38 238.75,78.25 238.75,60.439 223.863,46 205.5,46 c -9.313,0 -17.727,3.718 -23.763,9.702 0.001,-0.151 0.013,-0.301 0.013,-0.452 C 181.75,24.736 152.984,0 117.5,0 82.016,0 53.25,24.736 53.25,55.25 c 0,2.358 0.192,4.676 0.525,6.957 C 23.659,64.53 0,87.719 0,116 c 0,29.823 26.303,54 58.75,54 6.353,0 12.465,-0.939 18.195,-2.653 9.912,14.781 27.837,24.653 48.305,24.653 17.601,0 33.32,-7.303 43.683,-18.748 9.558,4.755 20.793,7.498 32.817,7.498 34.794,0 63,-22.945 63,-51.25 0,-17.53 -10.825,-32.996 -27.326,-42.237 z m -64.638,-3.272 c -0.196,0.083 -0.395,0.161 -0.59,0.246 0.17,-0.237 0.338,-0.475 0.504,-0.714 0.026,0.157 0.057,0.312 0.086,0.468 z"
   id="path3036"
   inkscape:connector-curvature="0"
   style="fill:#6abae8" />
</svg>