<?xml version="1.0" encoding="UTF-8" standalone="no"?>
<!-- Generator: Adobe Illustrator 17.0.0, SVG Export Plug-In . SVG Version: 6.00 Build 0)  -->

<svg
   xmlns:dc="http://purl.org/dc/elements/1.1/"
   xmlns:cc="http://creativecommons.org/ns#"
   xmlns:rdf="http://www.w3.org/1999/02/22-rdf-syntax-ns#"
   xmlns:svg="http://www.w3.org/2000/svg"
   xmlns="http://www.w3.org/2000/svg"
   xmlns:sodipodi="http://sodipodi.sourceforge.net/DTD/sodipodi-0.dtd"
   xmlns:inkscape="http://www.inkscape.org/namespaces/inkscape"
   version="1.1"
   id="Layer_1"
   x="0px"
   y="0px"
   width="325.341"
   height="321.16699"
   viewBox="0 0 325.341 321.16699"
   enable-background="new 0 0 612 792"
   xml:space="preserve"
   inkscape:version="0.48.3.1 r9886"
   sodipodi:docname="06-sun.svg"><metadata
   id="metadata27"><rdf:RDF><cc:Work
       rdf:about=""><dc:format>image/svg+xml</dc:format><dc:type
         rdf:resource="http://purl.org/dc/dcmitype/StillImage" /></cc:Work></rdf:RDF></metadata><defs
   id="defs25" /><sodipodi:namedview
   pagecolor="#ffffff"
   bordercolor="#666666"
   borderopacity="1"
   objecttolerance="10"
   gridtolerance="10"
   guidetolerance="10"
   inkscape:pageopacity="0"
   inkscape:pageshadow="2"
   inkscape:window-width="640"
   inkscape:window-height="480"
   id="namedview23"
   showgrid="false"
   fit-margin-top="0"
   fit-margin-left="0"
   fit-margin-right="0"
   fit-margin-bottom="0"
   inkscape:zoom="0.2979798"
   inkscape:cx="152.511"
   inkscape:cy="136.168"
   inkscape:window-x="0"
   inkscape:window-y="24"
   inkscape:window-maximized="0"
   inkscape:current-layer="Layer_1" />
<g
   id="g3"
   transform="translate(-153.489,-211.001)">
	<path
   d="m 414.635,331.702 16.456,-74.977 -64.878,19.902 c 21.9,12.102 39.159,31.573 48.422,55.075 z"
   id="path5"
   inkscape:connector-curvature="0"
   style="fill:#ffcb12" />
	<path
   d="m 313.981,263.192 c 13.035,0 25.53,2.307 37.102,6.533 l -34.765,-58.724 -0.159,0.275 -0.159,-0.275 -33.689,56.907 c 10.018,-3.063 20.65,-4.716 31.67,-4.716 z"
   id="path7"
   inkscape:connector-curvature="0"
   style="fill:#ffcb12" />
	<path
   d="m 478.83,376.999 -64.162,-45.21 c 4.816,12.251 7.463,25.593 7.463,39.553 0,12.396 -2.092,24.303 -5.931,35.393 l 62.63,-29.736 z"
   id="path9"
   inkscape:connector-curvature="0"
   style="fill:#ffcb12" />
	<path
   d="m 263.325,275.773 -62.096,-19.049 14.994,68.316 c 9.99,-21.056 26.581,-38.367 47.102,-49.267 z"
   id="path11"
   inkscape:connector-curvature="0"
   style="fill:#ffcb12" />
	<path
   d="m 313.981,479.492 c -10.813,0 -21.252,-1.594 -31.103,-4.548 l 33.74,57.224 34.188,-59.112 c -11.495,4.163 -23.894,6.436 -36.825,6.436 z"
   id="path13"
   inkscape:connector-curvature="0"
   style="fill:#ffcb12" />
	<path
   d="m 205.831,371.342 c 0,-12.402 2.094,-24.313 5.936,-35.407 l -58.278,41.063 57.456,27.28 c -3.317,-10.385 -5.114,-21.45 -5.114,-32.936 z"
   id="path15"
   inkscape:connector-curvature="0"
   style="fill:#ffcb12" />
	<path
   d="m 361.857,468.336 63.964,15.524 -17.074,-60.375 c -10.656,19.326 -27.052,35.04 -46.89,44.851 z"
   id="path17"
   inkscape:connector-curvature="0"
   style="fill:#ffcb12" />
	<path
   d="m 218.129,421.463 -17.646,62.397 65.077,-15.794 c -20.278,-10.172 -36.913,-26.53 -47.431,-46.603 z"
   id="path19"
   inkscape:connector-curvature="0"
   style="fill:#ffcb12" />
</g>
<circle
   cx="314.586"
   cy="370.10699"
   r="94.806999"
   id="circle21"
   sodipodi:cx="314.586"
   sodipodi:cy="370.10699"
   sodipodi:rx="94.806999"
   sodipodi:ry="94.806999"
   style="fill:#ffcb12"
   transform="translate(-153.489,-211.001)" />
</svg>