<?xml version="1.0" encoding="UTF-8" standalone="no"?>
<!-- Generator: Adobe Illustrator 17.0.0, SVG Export Plug-In . SVG Version: 6.00 Build 0)  -->

<svg
   xmlns:dc="http://purl.org/dc/elements/1.1/"
   xmlns:cc="http://creativecommons.org/ns#"
   xmlns:rdf="http://www.w3.org/1999/02/22-rdf-syntax-ns#"
   xmlns:svg="http://www.w3.org/2000/svg"
   xmlns="http://www.w3.org/2000/svg"
   xmlns:sodipodi="http://sodipodi.sourceforge.net/DTD/sodipodi-0.dtd"
   xmlns:inkscape="http://www.inkscape.org/namespaces/inkscape"
   version="1.1"
   id="Layer_1"
   x="0px"
   y="0px"
   width="214.56755"
   height="351.37601"
   viewBox="0 0 214.56755 351.37601"
   enable-background="new 0 0 612 792"
   xml:space="preserve"
   inkscape:version="0.48.3.1 r9886"
   sodipodi:docname="07-kite.svg"><metadata
   id="metadata19"><rdf:RDF><cc:Work
       rdf:about=""><dc:format>image/svg+xml</dc:format><dc:type
         rdf:resource="http://purl.org/dc/dcmitype/StillImage" /></cc:Work></rdf:RDF></metadata><defs
   id="defs17" /><sodipodi:namedview
   pagecolor="#ffffff"
   bordercolor="#666666"
   borderopacity="1"
   objecttolerance="10"
   gridtolerance="10"
   guidetolerance="10"
   inkscape:pageopacity="0"
   inkscape:pageshadow="2"
   inkscape:window-width="640"
   inkscape:window-height="480"
   id="namedview15"
   showgrid="false"
   fit-margin-top="0"
   fit-margin-left="0"
   fit-margin-right="0"
   fit-margin-bottom="0"
   inkscape:zoom="0.2979798"
   inkscape:cx="99.99"
   inkscape:cy="175.688"
   inkscape:window-x="0"
   inkscape:window-y="24"
   inkscape:window-maximized="0"
   inkscape:current-layer="Layer_1" />
<polyline
   points="229.599,231.814 208.966,353.348 278.778,313.715 "
   id="polyline3"
   style="fill:#fceb1d"
   transform="translate(-206.01,-220.312)" />
<path
   d="M 15.817,2.7767333e-6 C 17.817,-0.01899722 71.25,97.475003 71.25,97.475003 l 81.076,-44.834"
   id="path5"
   inkscape:connector-curvature="0"
   style="fill:#9dc23b" />
<path
   d="M 74.5,92.209003 0,132.065 c 0,0 125.5,50.644 125,50.644"
   id="path7"
   inkscape:connector-curvature="0"
   style="fill:#6bc8c4" />
<polyline
   points="275.51,314.521 328.51,412.021 354.51,272.021 "
   id="polyline9"
   style="fill:#f0565f"
   transform="translate(-206.01,-220.312)" />
<path
   d="m 125.001,193.709 c 0,0 -6.237,39.364 48.096,73.364 54.333,34 22.735,67.636 24.735,84.303 0,0 54.417,-32.667 -33,-97.315 0.001,0 -37.663,-33.685 -39.831,-60.352 z"
   id="path11"
   inkscape:connector-curvature="0"
   style="fill:#f0565f" />
<path
   d="m 131.5,204.376 c -0.99,-0.893 105.667,55.667 57.333,125.667 0,0 34.667,-42.667 -57.333,-125.667 z"
   id="path13"
   inkscape:connector-curvature="0"
   style="fill:#6bc8c4" />
</svg>