<?xml version="1.0" encoding="UTF-8" standalone="no"?>
<!-- Generator: Adobe Illustrator 17.0.0, SVG Export Plug-In . SVG Version: 6.00 Build 0)  -->

<svg
   xmlns:dc="http://purl.org/dc/elements/1.1/"
   xmlns:cc="http://creativecommons.org/ns#"
   xmlns:rdf="http://www.w3.org/1999/02/22-rdf-syntax-ns#"
   xmlns:svg="http://www.w3.org/2000/svg"
   xmlns="http://www.w3.org/2000/svg"
   xmlns:sodipodi="http://sodipodi.sourceforge.net/DTD/sodipodi-0.dtd"
   xmlns:inkscape="http://www.inkscape.org/namespaces/inkscape"
   version="1.1"
   id="Layer_1"
   x="0px"
   y="0px"
   width="393.94601"
   height="425"
   viewBox="0 0 393.94601 425"
   enable-background="new 0 0 612 792"
   xml:space="preserve"
   inkscape:version="0.48.3.1 r9886"
   sodipodi:docname="03-moon03.svg"><metadata
   id="metadata3100"><rdf:RDF><cc:Work
       rdf:about=""><dc:format>image/svg+xml</dc:format><dc:type
         rdf:resource="http://purl.org/dc/dcmitype/StillImage" /></cc:Work></rdf:RDF></metadata><defs
   id="defs3098" /><sodipodi:namedview
   pagecolor="#ffffff"
   bordercolor="#666666"
   borderopacity="1"
   objecttolerance="10"
   gridtolerance="10"
   guidetolerance="10"
   inkscape:pageopacity="0"
   inkscape:pageshadow="2"
   inkscape:window-width="640"
   inkscape:window-height="480"
   id="namedview3096"
   showgrid="false"
   fit-margin-top="0"
   fit-margin-left="0"
   fit-margin-right="0"
   fit-margin-bottom="0"
   inkscape:zoom="0.2979798"
   inkscape:cx="196.973"
   inkscape:cy="212.608"
   inkscape:window-x="0"
   inkscape:window-y="24"
   inkscape:window-maximized="0"
   inkscape:current-layer="Layer_1" />
<g
   id="g3090"
   transform="translate(-109.027,-183.608)">
	<g
   id="g3092">
		<path
   d="m 406.827,540.858 c -84.292,0 -152.625,-68.333 -152.625,-152.625 0,-84.292 68.333,-152.625 152.625,-152.625 26.309,0 51.063,6.658 72.67,18.379 -38.897,-43.206 -95.257,-70.379 -157.97,-70.379 -117.36,0 -212.5,95.139 -212.5,212.5 0,117.361 95.14,212.5 212.5,212.5 76.822,0 144.118,-40.769 181.446,-101.847 -26.245,21.315 -59.701,34.097 -96.146,34.097 z m -240.274,-118.723 -2.317,39.376 -16.336,-35.664 -25.941,-1.532 23.253,-11.245 1.418,-36.302 15.501,32.743 26.998,1.309 -22.576,11.315 z m 72.023,67.476 -12.097,-14.148 -14.071,33.39 -3.962,-35.613 -19.414,8.909 15.864,-11.35 2.923,-2.091 -25.722,-10.167 26.331,-2.954 -10.203,-18.235 12.656,14.802 12.493,-31.432 4.127,33.129 20.797,-9.544 -15.864,11.35 -3.415,2.443 25.962,9.959 -26.59,3.35 10.185,18.202 z"
   id="path3094"
   inkscape:connector-curvature="0"
   style="fill:#4ab4ed" />
	</g>
</g>
</svg>