<?xml version="1.0" encoding="UTF-8" standalone="no"?>
<!-- Generator: Adobe Illustrator 17.0.0, SVG Export Plug-In . SVG Version: 6.00 Build 0)  -->

<svg
   xmlns:dc="http://purl.org/dc/elements/1.1/"
   xmlns:cc="http://creativecommons.org/ns#"
   xmlns:rdf="http://www.w3.org/1999/02/22-rdf-syntax-ns#"
   xmlns:svg="http://www.w3.org/2000/svg"
   xmlns="http://www.w3.org/2000/svg"
   xmlns:sodipodi="http://sodipodi.sourceforge.net/DTD/sodipodi-0.dtd"
   xmlns:inkscape="http://www.inkscape.org/namespaces/inkscape"
   version="1.1"
   id="Layer_1"
   x="0px"
   y="0px"
   width="218.35019"
   height="198.81085"
   viewBox="0 0 218.35019 198.81085"
   enable-background="new 0 0 612 792"
   xml:space="preserve"
   inkscape:version="0.48.3.1 r9886"
   sodipodi:docname="04-star01.svg"><metadata
   id="metadata3087"><rdf:RDF><cc:Work
       rdf:about=""><dc:format>image/svg+xml</dc:format><dc:type
         rdf:resource="http://purl.org/dc/dcmitype/StillImage" /></cc:Work></rdf:RDF></metadata><defs
   id="defs3085" /><sodipodi:namedview
   pagecolor="#ffffff"
   bordercolor="#666666"
   borderopacity="1"
   objecttolerance="10"
   gridtolerance="10"
   guidetolerance="10"
   inkscape:pageopacity="0"
   inkscape:pageshadow="2"
   inkscape:window-width="640"
   inkscape:window-height="480"
   id="namedview3083"
   showgrid="false"
   fit-margin-top="0"
   fit-margin-left="0"
   fit-margin-right="0"
   fit-margin-bottom="0"
   inkscape:zoom="0.2979798"
   inkscape:cx="109"
   inkscape:cy="97.848849"
   inkscape:window-x="0"
   inkscape:window-y="24"
   inkscape:window-maximized="0"
   inkscape:current-layer="Layer_1" />
<path
   d="m 66.667,56.000007 c 0,0 32.333,-56.02299992 44.667,-55.9999999200249 C 121.422,0.01900708 151.334,56.000007 151.334,56.000007 c 0,0 66,7.667 67,23.667 1,16 -44.667,47.667003 -44.667,47.667003 0,0 14.333,65.167 0,71.15 -8.53,3.561 -63,-23.15 -63,-23.15 0,0 -50.333,25.667 -64.667,21 -14.333,-4.667 0,-64 0,-64 0,0 -46,-37.667003 -46,-55.333003 0,-14.728 66.667,-21.001 66.667,-21.001 z"
   id="path3081"
   inkscape:connector-curvature="0"
   style="fill:#ffca13" />
</svg>