<?xml version="1.0" encoding="UTF-8" standalone="no"?>
<!-- Generator: Adobe Illustrator 17.0.0, SVG Export Plug-In . SVG Version: 6.00 Build 0)  -->

<svg
   xmlns:dc="http://purl.org/dc/elements/1.1/"
   xmlns:cc="http://creativecommons.org/ns#"
   xmlns:rdf="http://www.w3.org/1999/02/22-rdf-syntax-ns#"
   xmlns:svg="http://www.w3.org/2000/svg"
   xmlns="http://www.w3.org/2000/svg"
   xmlns:sodipodi="http://sodipodi.sourceforge.net/DTD/sodipodi-0.dtd"
   xmlns:inkscape="http://www.inkscape.org/namespaces/inkscape"
   version="1.1"
   id="Layer_1"
   x="0px"
   y="0px"
   width="493.49899"
   height="325.66599"
   viewBox="0 0 493.49899 325.66599"
   enable-background="new 0 0 612 792"
   xml:space="preserve"
   inkscape:version="0.48.3.1 r9886"
   sodipodi:docname="11-cloud1.svg"><metadata
   id="metadata3024"><rdf:RDF><cc:Work
       rdf:about=""><dc:format>image/svg+xml</dc:format><dc:type
         rdf:resource="http://purl.org/dc/dcmitype/StillImage" /></cc:Work></rdf:RDF></metadata><defs
   id="defs3022" /><sodipodi:namedview
   pagecolor="#ffffff"
   bordercolor="#666666"
   borderopacity="1"
   objecttolerance="10"
   gridtolerance="10"
   guidetolerance="10"
   inkscape:pageopacity="0"
   inkscape:pageshadow="2"
   inkscape:window-width="640"
   inkscape:window-height="480"
   id="namedview3020"
   showgrid="false"
   fit-margin-top="0"
   fit-margin-left="0"
   fit-margin-right="0"
   fit-margin-bottom="0"
   inkscape:zoom="0.2979798"
   inkscape:cx="246.166"
   inkscape:cy="162"
   inkscape:window-x="0"
   inkscape:window-y="24"
   inkscape:window-maximized="0"
   inkscape:current-layer="Layer_1" />
<path
   d="m 493.499,199.166 c 0,-37.095 -37.907,-67.167 -84.667,-67.167 -11.491,0 -22.443,1.825 -32.433,5.115 1.146,-5.086 1.767,-10.362 1.767,-15.781 0,-40.685 -34.026,-73.667 -76,-73.667 -0.692,0 -1.375,0.033 -2.062,0.051 C 283.351,19.283 250.85,0 213.5,0 c -54.492,0 -98.667,41.041 -98.667,91.667 0,6.713 0.784,13.255 2.259,19.558 -5.033,-1.017 -10.247,-1.558 -15.592,-1.558 -41.974,0 -76,32.982 -76,73.667 0,12.171 3.064,23.641 8.455,33.756 C 13.401,227.344 0,244.08 0,263 c 0,31.204 36.414,56.5 81.333,56.5 32.641,0 60.775,-13.363 73.726,-32.639 12.556,14.042 30.243,22.805 49.857,22.805 13.812,0 26.665,-4.355 37.451,-11.825 18.443,16.954 46.885,27.825 78.799,27.825 49.186,0 90.126,-25.816 98.915,-59.941 41.439,-4.367 73.418,-32.491 73.418,-66.559 z"
   id="path3018"
   inkscape:connector-curvature="0"
   style="fill:#20e2ff" />
</svg>