<?xml version="1.0" encoding="UTF-8" standalone="no"?>
<!-- Generator: Adobe Illustrator 17.0.0, SVG Export Plug-In . SVG Version: 6.00 Build 0)  -->

<svg
   xmlns:dc="http://purl.org/dc/elements/1.1/"
   xmlns:cc="http://creativecommons.org/ns#"
   xmlns:rdf="http://www.w3.org/1999/02/22-rdf-syntax-ns#"
   xmlns:svg="http://www.w3.org/2000/svg"
   xmlns="http://www.w3.org/2000/svg"
   xmlns:sodipodi="http://sodipodi.sourceforge.net/DTD/sodipodi-0.dtd"
   xmlns:inkscape="http://www.inkscape.org/namespaces/inkscape"
   version="1.1"
   id="Layer_1"
   x="0px"
   y="0px"
   width="436"
   height="309"
   viewBox="0 0 436 309"
   enable-background="new 0 0 612 792"
   xml:space="preserve"
   inkscape:version="0.48.3.1 r9886"
   sodipodi:docname="12-cloud2.svg"><metadata
   id="metadata3015"><rdf:RDF><cc:Work
       rdf:about=""><dc:format>image/svg+xml</dc:format><dc:type
         rdf:resource="http://purl.org/dc/dcmitype/StillImage" /></cc:Work></rdf:RDF></metadata><defs
   id="defs3013" /><sodipodi:namedview
   pagecolor="#ffffff"
   bordercolor="#666666"
   borderopacity="1"
   objecttolerance="10"
   gridtolerance="10"
   guidetolerance="10"
   inkscape:pageopacity="0"
   inkscape:pageshadow="2"
   inkscape:window-width="640"
   inkscape:window-height="480"
   id="namedview3011"
   showgrid="false"
   fit-margin-top="0"
   fit-margin-left="0"
   fit-margin-right="0"
   fit-margin-bottom="0"
   inkscape:zoom="0.2979798"
   inkscape:cx="217"
   inkscape:cy="154"
   inkscape:window-x="0"
   inkscape:window-y="24"
   inkscape:window-maximized="0"
   inkscape:current-layer="Layer_1" />
<path
   d="M 400.1,149.333 C 406.982,139.885 411,128.502 411,116.25 411,83.527 382.346,57 347,57 331.257,57 316.85,62.272 305.703,71.001 302.334,31.243 268.397,0 227,0 c -43.63,0 -79,34.698 -79,77.5 0,1.633 0.069,3.25 0.17,4.858 C 135.246,76.985 120.988,74 106,74 47.458,74 0,119.443 0,175.5 0,231.557 47.458,277 106,277 c 16.429,0 31.984,-3.58 45.863,-9.968 18.572,25.396 49.111,41.968 83.637,41.968 33.649,0 63.51,-15.74 82.198,-40.049 12.018,7.294 26.371,11.549 41.802,11.549 42.25,0 76.5,-31.788 76.5,-71 0,-25.365 -14.342,-47.609 -35.9,-60.167 z"
   id="path3009"
   inkscape:connector-curvature="0"
   style="fill:#a9e2ff" />
</svg>