<?xml version="1.0" encoding="UTF-8" standalone="no"?>
<!-- Generator: Adobe Illustrator 17.0.0, SVG Export Plug-In . SVG Version: 6.00 Build 0)  -->

<svg
   xmlns:dc="http://purl.org/dc/elements/1.1/"
   xmlns:cc="http://creativecommons.org/ns#"
   xmlns:rdf="http://www.w3.org/1999/02/22-rdf-syntax-ns#"
   xmlns:svg="http://www.w3.org/2000/svg"
   xmlns="http://www.w3.org/2000/svg"
   xmlns:sodipodi="http://sodipodi.sourceforge.net/DTD/sodipodi-0.dtd"
   xmlns:inkscape="http://www.inkscape.org/namespaces/inkscape"
   version="1.1"
   id="Layer_1"
   x="0px"
   y="0px"
   width="495.20682"
   height="292.16721"
   viewBox="0 0 495.20682 292.16721"
   enable-background="new 0 0 612 792"
   xml:space="preserve"
   inkscape:version="0.48.3.1 r9886"
   sodipodi:docname="13-zeppelin.svg"><metadata
   id="metadata31"><rdf:RDF><cc:Work
       rdf:about=""><dc:format>image/svg+xml</dc:format><dc:type
         rdf:resource="http://purl.org/dc/dcmitype/StillImage" /></cc:Work></rdf:RDF></metadata><defs
   id="defs29" /><sodipodi:namedview
   pagecolor="#ffffff"
   bordercolor="#666666"
   borderopacity="1"
   objecttolerance="10"
   gridtolerance="10"
   guidetolerance="10"
   inkscape:pageopacity="0"
   inkscape:pageshadow="2"
   inkscape:window-width="640"
   inkscape:window-height="480"
   id="namedview27"
   showgrid="false"
   fit-margin-top="0"
   fit-margin-left="0"
   fit-margin-right="0"
   fit-margin-bottom="0"
   inkscape:zoom="0.2979798"
   inkscape:cx="262.06198"
   inkscape:cy="147.86822"
   inkscape:window-x="0"
   inkscape:window-y="24"
   inkscape:window-maximized="0"
   inkscape:current-layer="Layer_1" />
<rect
   x="296.15799"
   y="264.01797"
   width="18.181"
   height="5.533"
   id="rect3"
   style="fill:#20e2ff" />
<path
   d="m 456.27998,149.73099 c 0,0 46.257,81.729 37.922,90.162 -8.335,8.433 -109.417,-57.464 -109.417,-57.464"
   id="path5"
   inkscape:connector-curvature="0"
   style="fill:#20e2ff" />
<path
   d="m 408.79098,58.395988 c 0,0 74.7,-56.9139997 84.185,-49.7999997 9.485,7.1139997 -42.093,116.2000017 -42.093,116.2000017"
   id="path7"
   inkscape:connector-curvature="0"
   style="fill:#20e2ff" />
<ellipse
   cx="275.16901"
   cy="376.49701"
   rx="229.731"
   ry="124.796"
   id="ellipse9"
   sodipodi:cx="275.16901"
   sodipodi:cy="376.49701"
   sodipodi:rx="229.731"
   sodipodi:ry="124.796"
   style="fill:#0eb2ff"
   transform="translate(-43.938019,-251.70101)" />
<path
   d="m 145.95898,243.86099 c 0,0 160.664,-1.383 159.28,0 -1.383,1.383 1.976,45.452 -19.762,47.428 -21.738,1.976 -96.438,0 -96.438,0 0,0 -41.104,-15.414 -43.08,-47.428 z"
   id="path11"
   inkscape:connector-curvature="0"
   style="fill:#024059" />
<path
   d="m 227.37798,270.73699 c 0,3.929 -3.185,7.114 -7.114,7.114 h -7.905 c -3.929,0 -7.114,-3.185 -7.114,-7.114 v -7.905 c 0,-3.929 3.185,-7.114 7.114,-7.114 h 7.905 c 3.929,0 7.114,3.185 7.114,7.114 v 7.905 z"
   id="path13"
   inkscape:connector-curvature="0"
   style="fill:#20e2ff" />
<path
   d="m 263.54198,270.73699 c 0,3.929 -3.185,7.114 -7.114,7.114 h -7.905 c -3.929,0 -7.114,-3.185 -7.114,-7.114 v -7.905 c 0,-3.929 3.185,-7.114 7.114,-7.114 h 7.905 c 3.929,0 7.114,3.185 7.114,7.114 v 7.905 z"
   id="path15"
   inkscape:connector-curvature="0"
   style="fill:#20e2ff" />
<path
   d="m 310.43998,265.39799 c -0.599,0.385 -3.861,-17.063 0.269,-15.807 4.129,1.256 0.917,15.834 0.917,15.834"
   id="path17"
   inkscape:connector-curvature="0"
   style="fill:#20e2ff" />
<path
   d="m 310.43998,268.62299 c -0.599,-0.385 -3.861,17.063 0.269,15.807 4.129,-1.256 0.917,-15.834 0.917,-15.834"
   id="path19"
   inkscape:connector-curvature="0"
   style="fill:#20e2ff" />
<ellipse
   stroke-miterlimit="10"
   cx="275.91299"
   cy="376.49701"
   rx="230.174"
   ry="90.707001"
   id="ellipse21"
   sodipodi:cx="275.91299"
   sodipodi:cy="376.49701"
   sodipodi:rx="230.174"
   sodipodi:ry="90.707001"
   style="fill:none;stroke:#99f3ff;stroke-width:3;stroke-miterlimit:10"
   transform="translate(-43.938019,-251.70101)" />
<ellipse
   stroke-miterlimit="10"
   cx="275.91299"
   cy="377.38599"
   rx="230.174"
   ry="44.661999"
   id="ellipse23"
   sodipodi:cx="275.91299"
   sodipodi:cy="377.38599"
   sodipodi:rx="230.174"
   sodipodi:ry="44.661999"
   style="fill:none;stroke:#99f3ff;stroke-width:3;stroke-miterlimit:10"
   transform="translate(-43.938019,-251.70101)" />
<ellipse
   stroke-miterlimit="10"
   cx="275.39001"
   cy="375.311"
   rx="229.952"
   ry="15.118"
   id="ellipse25"
   sodipodi:cx="275.39001"
   sodipodi:cy="375.311"
   sodipodi:rx="229.952"
   sodipodi:ry="15.118"
   style="fill:none;stroke:#99f3ff;stroke-width:3;stroke-miterlimit:10"
   transform="translate(-43.938019,-251.70101)" />
</svg>